<svg width="33" height="33" viewBox="0 0 33 33" fill="none" xmlns="http://www.w3.org/2000/svg">
<path d="M11.0557 8.68561C11.7638 8.68561 12.4009 8.74692 12.9851 8.87194C13.5658 8.99576 14.0611 9.20013 14.4794 9.48263C14.8917 9.76513 15.2139 10.1402 15.4459 10.6114C15.6707 11.0767 15.7825 11.6585 15.7825 12.3461C15.7825 13.0915 15.6142 13.7142 15.2764 14.2107C14.9362 14.7083 14.4349 15.1159 13.7665 15.4308C14.6765 15.6941 15.351 16.1545 15.7981 16.8085C16.2477 17.4685 16.4677 18.2583 16.4677 19.1839C16.4677 19.9353 16.3247 20.5808 16.0374 21.123C15.7605 21.6571 15.3588 22.1165 14.8665 22.4622C14.3565 22.8173 13.7868 23.0779 13.1847 23.2315C12.5533 23.3973 11.9032 23.4805 11.2504 23.4792H4.07966V8.68561H11.0557ZM10.6337 14.6627C11.2108 14.6627 11.6892 14.5256 12.0667 14.2479C12.4418 13.9738 12.6233 13.5218 12.6233 12.9027C12.6233 12.5589 12.562 12.2752 12.4418 12.0528C12.3246 11.8389 12.1513 11.6609 11.9405 11.5383C11.7198 11.4074 11.4762 11.3197 11.2228 11.2798C10.9465 11.2283 10.6659 11.2037 10.3849 11.2065H7.33747V14.6627H10.6337ZM10.8153 20.9607C11.1362 20.9607 11.4416 20.933 11.7289 20.8681C12.0186 20.8056 12.2759 20.7046 12.4947 20.5544C12.7134 20.4101 12.8938 20.2142 13.0236 19.9641C13.1546 19.7165 13.2183 19.3931 13.2183 19.0048C13.2183 18.2426 13.0032 17.7005 12.5776 17.3723C12.1508 17.0477 11.5786 16.8866 10.8778 16.8866H7.33747V20.9619H10.8153V20.9607ZM21.1116 20.9114C21.5528 21.3418 22.1887 21.5581 23.0158 21.5581C23.6085 21.5581 24.1206 21.4079 24.5521 21.1098C24.9777 20.8104 25.2374 20.4906 25.3371 20.1601H27.9278C27.5118 21.4488 26.8807 22.3696 26.0176 22.9238C25.1652 23.4804 24.1278 23.7569 22.916 23.7569C22.0721 23.7569 21.3124 23.621 20.632 23.3517C19.9789 23.0974 19.3887 22.7045 18.9021 22.2001C18.4235 21.6839 18.0535 21.0768 17.8141 20.4149C17.551 19.6829 17.4207 18.9098 17.4295 18.132C17.4295 17.3314 17.5629 16.5825 17.825 15.8913C18.0737 15.2231 18.4557 14.6124 18.9478 14.0965C19.4346 13.5916 20.0117 13.1936 20.6837 12.9015C21.3903 12.6043 22.1507 12.4562 22.9172 12.4663C23.8237 12.4663 24.6159 12.6419 25.2963 12.9953C25.9561 13.3327 26.5282 13.8192 26.9673 14.4162C27.4036 15.0089 27.715 15.6881 27.9085 16.449C28.1021 17.2088 28.1694 18.0022 28.1141 18.8329H20.3831C20.3843 19.6792 20.6692 20.481 21.1116 20.9114ZM24.492 15.2842C24.1422 14.8971 23.5508 14.6879 22.8271 14.6879C22.357 14.6879 21.9687 14.766 21.6562 14.9271C21.3704 15.0715 21.1168 15.2723 20.9109 15.5174C20.7299 15.7399 20.5958 15.9967 20.5166 16.2723C20.4472 16.5022 20.4025 16.7387 20.3831 16.978H25.1701C25.1003 16.2278 24.8431 15.6737 24.492 15.2842ZM19.782 9.67858H25.7795V11.1392H19.782V9.67858Z" fill="white"/>
</svg>
